<?xml version="1.0" encoding="utf-8" standalone="no"?>
<!DOCTYPE svg PUBLIC "-//W3C//DTD SVG 1.1//EN"
  "http://www.w3.org/Graphics/SVG/1.1/DTD/svg11.dtd">
<svg xmlns:xlink="http://www.w3.org/1999/xlink" width="339.59952pt" height="238.79952pt" viewBox="0 0 339.59952 238.79952" xmlns="http://www.w3.org/2000/svg" version="1.1">
 <metadata>
  <rdf:RDF xmlns:dc="http://purl.org/dc/elements/1.1/" xmlns:cc="http://creativecommons.org/ns#" xmlns:rdf="http://www.w3.org/1999/02/22-rdf-syntax-ns#">
   <cc:Work>
    <dc:type rdf:resource="http://purl.org/dc/dcmitype/StillImage"/>
    <dc:date>2026-07-05T21:34:22.854610</dc:date>
    <dc:format>image/svg+xml</dc:format>
    <dc:creator>
     <cc:Agent>
      <dc:title>Matplotlib v3.11.0, https://matplotlib.org/</dc:title>
     </cc:Agent>
    </dc:creator>
   </cc:Work>
  </rdf:RDF>
 </metadata>
 <defs>
  <style type="text/css">*{stroke-linejoin: round; stroke-linecap: butt}</style>
 </defs>
 <g id="figure_1">
  <g id="patch_1">
   <path d="M 0 238.79952 
L 339.59952 238.79952 
L 339.59952 0 
L 0 0 
z
" style="fill: #ffffff"/>
  </g>
  <g id="axes_1">
   <g id="patch_2">
    <path d="M 21.584961 201.653231 
L 332.39952 201.653231 
L 332.39952 7.2 
L 21.584961 7.2 
z
" style="fill: #ffffff"/>
   </g>
   <g id="matplotlib.axis_1">
    <g id="xtick_1">
     <g id="line2d_1">
      <defs>
       <path id="m1882ad371d" d="M 0 0 
L 0 3.5 
" style="stroke: #000000; stroke-width: 0.8"/>
      </defs>
      <g>
       <use xlink:href="#m1882ad371d" x="21.584961" y="201.653231" style="stroke: #000000; stroke-width: 0.8"/>
      </g>
     </g>
     <g id="text_1">
      <text style="font-size: 9px; font-family: 'Arial'; text-anchor: middle" x="21.584961" y="215.205477" transform="rotate(-0 21.584961 215.205477)">5.0</text>
     </g>
    </g>
    <g id="xtick_2">
     <g id="line2d_2">
      <g>
       <use xlink:href="#m1882ad371d" x="64.279269" y="201.653231" style="stroke: #000000; stroke-width: 0.8"/>
      </g>
     </g>
     <g id="text_2">
      <text style="font-size: 9px; font-family: 'Arial'; text-anchor: middle" x="64.279269" y="215.205477" transform="rotate(-0 64.279269 215.205477)">7.5</text>
     </g>
    </g>
    <g id="xtick_3">
     <g id="line2d_3">
      <g>
       <use xlink:href="#m1882ad371d" x="106.973576" y="201.653231" style="stroke: #000000; stroke-width: 0.8"/>
      </g>
     </g>
     <g id="text_3">
      <text style="font-size: 9px; font-family: 'Arial'; text-anchor: middle" x="106.973576" y="215.205477" transform="rotate(-0 106.973576 215.205477)">10.0</text>
     </g>
    </g>
    <g id="xtick_4">
     <g id="line2d_4">
      <g>
       <use xlink:href="#m1882ad371d" x="149.667884" y="201.653231" style="stroke: #000000; stroke-width: 0.8"/>
      </g>
     </g>
     <g id="text_4">
      <text style="font-size: 9px; font-family: 'Arial'; text-anchor: middle" x="149.667884" y="215.205477" transform="rotate(-0 149.667884 215.205477)">12.5</text>
     </g>
    </g>
    <g id="xtick_5">
     <g id="line2d_5">
      <g>
       <use xlink:href="#m1882ad371d" x="192.362191" y="201.653231" style="stroke: #000000; stroke-width: 0.8"/>
      </g>
     </g>
     <g id="text_5">
      <text style="font-size: 9px; font-family: 'Arial'; text-anchor: middle" x="192.362191" y="215.205477" transform="rotate(-0 192.362191 215.205477)">15.0</text>
     </g>
    </g>
    <g id="xtick_6">
     <g id="line2d_6">
      <g>
       <use xlink:href="#m1882ad371d" x="235.056499" y="201.653231" style="stroke: #000000; stroke-width: 0.8"/>
      </g>
     </g>
     <g id="text_6">
      <text style="font-size: 9px; font-family: 'Arial'; text-anchor: middle" x="235.056499" y="215.205477" transform="rotate(-0 235.056499 215.205477)">17.5</text>
     </g>
    </g>
    <g id="xtick_7">
     <g id="line2d_7">
      <g>
       <use xlink:href="#m1882ad371d" x="277.750806" y="201.653231" style="stroke: #000000; stroke-width: 0.8"/>
      </g>
     </g>
     <g id="text_7">
      <text style="font-size: 9px; font-family: 'Arial'; text-anchor: middle" x="277.750806" y="215.205477" transform="rotate(-0 277.750806 215.205477)">20.0</text>
     </g>
    </g>
    <g id="xtick_8">
     <g id="line2d_8">
      <g>
       <use xlink:href="#m1882ad371d" x="320.445114" y="201.653231" style="stroke: #000000; stroke-width: 0.8"/>
      </g>
     </g>
     <g id="text_8">
      <text style="font-size: 9px; font-family: 'Arial'; text-anchor: middle" x="320.445114" y="215.205477" transform="rotate(-0 320.445114 215.205477)">22.5</text>
     </g>
    </g>
    <g id="text_9">
     <!-- 2$\theta$ (degree) -->
     <g transform="translate(151.14224 229.39952)">
      <text>
       <tspan x="0" y="-0.71875" style="font-size: 10px; font-family: 'Arial'">2</tspan>
       <tspan x="5.561523" y="-0.71875" style="font-size: 10px; font-family: 'Arial'">θ</tspan>
       <tspan x="11.123047" y="-0.71875" style="font-size: 10px; font-family: 'Arial'"> </tspan>
       <tspan x="13.901367" y="-0.71875" style="font-size: 10px; font-family: 'Arial'">(</tspan>
       <tspan x="17.231445" y="-0.71875" style="font-size: 10px; font-family: 'Arial'">d</tspan>
       <tspan x="22.792969" y="-0.71875" style="font-size: 10px; font-family: 'Arial'">e</tspan>
       <tspan x="28.354492" y="-0.71875" style="font-size: 10px; font-family: 'Arial'">g</tspan>
       <tspan x="33.916016" y="-0.71875" style="font-size: 10px; font-family: 'Arial'">r</tspan>
       <tspan x="37.246094" y="-0.71875" style="font-size: 10px; font-family: 'Arial'">e</tspan>
       <tspan x="42.807617" y="-0.71875" style="font-size: 10px; font-family: 'Arial'">e</tspan>
       <tspan x="48.369141" y="-0.71875" style="font-size: 10px; font-family: 'Arial'">)</tspan>
      </text>
     </g>
    </g>
   </g>
   <g id="matplotlib.axis_2">
    <g id="text_10">
     <text style="font-size: 10px; font-family: 'Arial'; text-anchor: middle" x="14.480273" y="104.426615" transform="rotate(-90 14.480273 104.426615)">Normalized intensity (a.u.)</text>
    </g>
   </g>
   <g id="line2d_9">
    <path d="M 21.584961 192.814448 
L 25.000506 192.814448 
L 28.41605 192.814448 
L 31.831595 192.814448 
L 35.247139 192.814448 
L 38.662684 192.814409 
L 42.078229 192.814212 
L 45.493773 192.813545 
L 48.909318 192.811033 
L 52.324862 192.802517 
L 55.740407 192.776615 
L 59.155952 192.70452 
L 62.571496 192.522184 
L 65.987041 192.10359 
L 69.402585 191.232373 
L 72.81813 189.592961 
L 76.233675 186.812596 
L 79.649219 182.583711 
L 83.064764 176.858307 
L 86.480308 170.045482 
L 89.895853 163.087173 
L 93.311398 157.30345 
L 96.726942 154.002373 
L 100.142487 154.002373 
L 103.558031 157.30345 
L 106.973576 163.087173 
L 110.389121 170.045482 
L 113.804665 176.858307 
L 117.22021 182.583711 
L 120.635754 186.812596 
L 124.051299 189.592961 
L 127.466844 191.232373 
L 130.882388 192.10359 
L 134.297933 192.522184 
L 137.713478 192.70452 
L 141.129022 192.776615 
L 144.544567 192.802517 
L 147.960111 192.811033 
L 151.375656 192.813545 
L 154.791201 192.814212 
L 158.206745 192.814409 
L 161.62229 192.814448 
L 165.037834 192.814448 
L 168.453379 192.814448 
L 171.868924 192.814448 
L 175.284468 192.814448 
L 178.700013 192.814448 
L 182.115557 192.814448 
L 185.531102 192.814448 
L 188.946647 192.814448 
L 192.362191 192.814448 
L 195.777736 192.814448 
L 199.19328 192.814448 
L 202.608825 192.814448 
L 206.02437 192.814448 
L 209.439914 192.814448 
L 212.855459 192.814448 
L 216.271003 192.814448 
L 219.686548 192.814448 
L 223.102093 192.814448 
L 226.517637 192.814448 
L 229.933182 192.814448 
L 233.348726 192.814448 
L 236.764271 192.814448 
L 240.179816 192.814448 
L 243.59536 192.814448 
L 247.010905 192.814448 
L 250.426449 192.814448 
L 253.841994 192.814448 
L 257.257539 192.814448 
L 260.673083 192.814448 
L 264.088628 192.814448 
L 267.504173 192.814448 
L 270.919717 192.814448 
L 274.335262 192.814448 
L 277.750806 192.814448 
L 281.166351 192.814448 
L 284.581896 192.814448 
L 287.99744 192.814448 
L 291.412985 192.814448 
L 294.828529 192.814448 
L 298.244074 192.814448 
L 301.659619 192.814448 
L 305.075163 192.814448 
L 308.490708 192.814448 
L 311.906252 192.814448 
L 315.321797 192.814448 
L 318.737342 192.814448 
L 322.152886 192.814448 
L 325.568431 192.814448 
" clip-path="url(#pee8acce51d)" style="fill: none; stroke: #9aa4b2; stroke-width: 1.35; stroke-linecap: square"/>
   </g>
   <g id="line2d_10">
    <path d="M 21.584961 146.826584 
L 25.000506 146.826584 
L 28.41605 146.826584 
L 31.831595 146.826584 
L 35.247139 146.826584 
L 38.662684 146.826584 
L 42.078229 146.826545 
L 45.493773 146.826349 
L 48.909318 146.825682 
L 52.324862 146.82317 
L 55.740407 146.814653 
L 59.155952 146.788752 
L 62.571496 146.716657 
L 65.987041 146.534321 
L 69.402585 146.115726 
L 72.81813 145.24451 
L 76.233675 143.605098 
L 79.649219 140.824733 
L 83.064764 136.595848 
L 86.480308 130.870444 
L 89.895853 124.057619 
L 93.311398 117.09931 
L 96.726942 111.315587 
L 100.142487 108.01451 
L 103.558031 108.01451 
L 106.973576 111.315587 
L 110.389121 117.09931 
L 113.804665 124.057619 
L 117.22021 130.870444 
L 120.635754 136.595848 
L 124.051299 140.824733 
L 127.466844 143.605098 
L 130.882388 145.24451 
L 134.297933 146.115726 
L 137.713478 146.534321 
L 141.129022 146.716657 
L 144.544567 146.788752 
L 147.960111 146.814653 
L 151.375656 146.82317 
L 154.791201 146.825682 
L 158.206745 146.826349 
L 161.62229 146.826545 
L 165.037834 146.826584 
L 168.453379 146.826584 
L 171.868924 146.826584 
L 175.284468 146.826584 
L 178.700013 146.826584 
L 182.115557 146.826584 
L 185.531102 146.826584 
L 188.946647 146.826584 
L 192.362191 146.826584 
L 195.777736 146.826584 
L 199.19328 146.826584 
L 202.608825 146.826584 
L 206.02437 146.826584 
L 209.439914 146.826584 
L 212.855459 146.826584 
L 216.271003 146.826584 
L 219.686548 146.826584 
L 223.102093 146.826584 
L 226.517637 146.826584 
L 229.933182 146.826584 
L 233.348726 146.826584 
L 236.764271 146.826584 
L 240.179816 146.826584 
L 243.59536 146.826584 
L 247.010905 146.826584 
L 250.426449 146.826584 
L 253.841994 146.826584 
L 257.257539 146.826584 
L 260.673083 146.826584 
L 264.088628 146.826584 
L 267.504173 146.826584 
L 270.919717 146.826584 
L 274.335262 146.826584 
L 277.750806 146.826584 
L 281.166351 146.826584 
L 284.581896 146.826584 
L 287.99744 146.826584 
L 291.412985 146.826584 
L 294.828529 146.826584 
L 298.244074 146.826584 
L 301.659619 146.826584 
L 305.075163 146.826584 
L 308.490708 146.826584 
L 311.906252 146.826584 
L 315.321797 146.826584 
L 318.737342 146.826584 
L 322.152886 146.826584 
L 325.568431 146.826584 
" clip-path="url(#pee8acce51d)" style="fill: none; stroke: #83b6c8; stroke-width: 1.35; stroke-linecap: square"/>
   </g>
   <g id="line2d_11">
    <path d="M 21.584961 100.851352 
L 25.000506 100.851352 
L 28.41605 100.851352 
L 31.831595 100.851352 
L 35.247139 100.851352 
L 38.662684 100.851313 
L 42.078229 100.851235 
L 45.493773 100.850925 
L 48.909318 100.849605 
L 52.324862 100.844946 
L 55.740407 100.830115 
L 59.155952 100.786825 
L 62.571496 100.672059 
L 65.987041 100.395394 
L 69.402585 99.790506 
L 72.81813 98.593035 
L 76.233675 96.452784 
L 79.649219 93.01276 
L 83.064764 88.070531 
L 86.480308 81.784617 
L 89.895853 74.826375 
L 93.311398 68.350104 
L 96.726942 63.714395 
L 100.142487 62.026647 
L 103.558031 63.714395 
L 106.973576 68.350104 
L 110.389121 74.826375 
L 113.804665 81.784617 
L 117.22021 88.070531 
L 120.635754 93.01276 
L 124.051299 96.452784 
L 127.466844 98.593035 
L 130.882388 99.790506 
L 134.297933 100.395394 
L 137.713478 100.672059 
L 141.129022 100.786825 
L 144.544567 100.830115 
L 147.960111 100.844946 
L 151.375656 100.849605 
L 154.791201 100.850925 
L 158.206745 100.851235 
L 161.62229 100.851313 
L 165.037834 100.851352 
L 168.453379 100.851352 
L 171.868924 100.851352 
L 175.284468 100.851352 
L 178.700013 100.851352 
L 182.115557 100.851352 
L 185.531102 100.851352 
L 188.946647 100.851352 
L 192.362191 100.851352 
L 195.777736 100.851352 
L 199.19328 100.851352 
L 202.608825 100.851352 
L 206.02437 100.851352 
L 209.439914 100.851352 
L 212.855459 100.851352 
L 216.271003 100.851352 
L 219.686548 100.851352 
L 223.102093 100.851352 
L 226.517637 100.851352 
L 229.933182 100.851352 
L 233.348726 100.851352 
L 236.764271 100.851352 
L 240.179816 100.851352 
L 243.59536 100.851352 
L 247.010905 100.851352 
L 250.426449 100.851352 
L 253.841994 100.851352 
L 257.257539 100.851352 
L 260.673083 100.851352 
L 264.088628 100.851352 
L 267.504173 100.851352 
L 270.919717 100.851352 
L 274.335262 100.851352 
L 277.750806 100.851352 
L 281.166351 100.851352 
L 284.581896 100.851352 
L 287.99744 100.851352 
L 291.412985 100.851352 
L 294.828529 100.851352 
L 298.244074 100.851352 
L 301.659619 100.851352 
L 305.075163 100.851352 
L 308.490708 100.851352 
L 311.906252 100.851352 
L 315.321797 100.851352 
L 318.737342 100.851352 
L 322.152886 100.851352 
L 325.568431 100.851352 
" clip-path="url(#pee8acce51d)" style="fill: none; stroke: #a6c98f; stroke-width: 1.35; stroke-linecap: square"/>
   </g>
   <g id="line2d_12">
    <path d="M 21.584961 54.860343 
L 25.000506 54.860343 
L 28.41605 54.860343 
L 31.831595 54.860343 
L 35.247139 54.860343 
L 38.662684 54.860304 
L 42.078229 54.860188 
L 45.493773 54.85972 
L 48.909318 54.857891 
L 52.324862 54.851623 
L 55.740407 54.832003 
L 59.155952 54.776138 
L 62.571496 54.631398 
L 65.987041 54.290999 
L 69.402585 53.564729 
L 72.81813 52.162876 
L 76.233675 49.721876 
L 79.649219 45.904483 
L 83.064764 40.578687 
L 86.480308 34.022873 
L 89.895853 27.043467 
L 93.311398 20.884734 
L 96.726942 16.891963 
L 100.142487 16.038783 
L 103.558031 18.542498 
L 106.973576 23.774474 
L 110.389121 30.515749 
L 113.804665 37.416673 
L 117.22021 43.424476 
L 120.635754 48.000801 
L 124.051299 51.095739 
L 127.466844 52.970002 
L 130.882388 53.991864 
L 134.297933 54.495301 
L 137.713478 54.719924 
L 141.129022 54.810942 
L 144.544567 54.844421 
L 147.960111 54.855671 
L 151.375656 54.859097 
L 154.791201 54.860032 
L 158.206745 54.860265 
L 161.62229 54.860343 
L 165.037834 54.860343 
L 168.453379 54.860343 
L 171.868924 54.860343 
L 175.284468 54.860343 
L 178.700013 54.860343 
L 182.115557 54.860343 
L 185.531102 54.860343 
L 188.946647 54.860343 
L 192.362191 54.860343 
L 195.777736 54.860343 
L 199.19328 54.860343 
L 202.608825 54.860343 
L 206.02437 54.860343 
L 209.439914 54.860343 
L 212.855459 54.860343 
L 216.271003 54.860343 
L 219.686548 54.860343 
L 223.102093 54.860343 
L 226.517637 54.860343 
L 229.933182 54.860343 
L 233.348726 54.860343 
L 236.764271 54.860343 
L 240.179816 54.860343 
L 243.59536 54.860343 
L 247.010905 54.860343 
L 250.426449 54.860343 
L 253.841994 54.860343 
L 257.257539 54.860343 
L 260.673083 54.860343 
L 264.088628 54.860343 
L 267.504173 54.860343 
L 270.919717 54.860343 
L 274.335262 54.860343 
L 277.750806 54.860343 
L 281.166351 54.860343 
L 284.581896 54.860343 
L 287.99744 54.860343 
L 291.412985 54.860343 
L 294.828529 54.860343 
L 298.244074 54.860343 
L 301.659619 54.860343 
L 305.075163 54.860343 
L 308.490708 54.860343 
L 311.906252 54.860343 
L 315.321797 54.860343 
L 318.737342 54.860343 
L 322.152886 54.860343 
L 325.568431 54.860343 
" clip-path="url(#pee8acce51d)" style="fill: none; stroke: #e6b07e; stroke-width: 1.35; stroke-linecap: square"/>
   </g>
   <g id="patch_3">
    <path d="M 21.584961 201.653231 
L 21.584961 7.2 
" style="fill: none; stroke: #000000; stroke-width: 0.9; stroke-linejoin: miter; stroke-linecap: square"/>
   </g>
   <g id="patch_4">
    <path d="M 21.584961 201.653231 
L 332.39952 201.653231 
" style="fill: none; stroke: #000000; stroke-width: 0.9; stroke-linejoin: miter; stroke-linecap: square"/>
   </g>
   <g id="text_11">
    <text style="font-weight: 700; font-size: 8.8px; font-family: 'Arial'; text-anchor: end; fill: #9aa4b2" x="315.321797" y="187.363444" transform="rotate(-0 315.321797 187.363444)">simulated</text>
   </g>
   <g id="text_12">
    <text style="font-weight: 700; font-size: 8.8px; font-family: 'Arial'; text-anchor: end; fill: #83b6c8" x="315.321797" y="141.375409" transform="rotate(-0 315.321797 141.375409)">as-synthesized</text>
   </g>
   <g id="text_13">
    <text style="font-weight: 700; font-size: 8.8px; font-family: 'Arial'; text-anchor: end; fill: #a6c98f" x="315.321797" y="95.400177" transform="rotate(-0 315.321797 95.400177)">solvent-exchanged</text>
   </g>
   <g id="text_14">
    <text style="font-weight: 700; font-size: 8.8px; font-family: 'Arial'; text-anchor: end; fill: #e6b07e" x="315.321797" y="49.40934" transform="rotate(-0 315.321797 49.40934)">activated</text>
   </g>
  </g>
 </g>
 <defs>
  <clipPath id="pee8acce51d">
   <rect x="21.584961" y="7.2" width="310.814559" height="194.453231"/>
  </clipPath>
 </defs>
</svg>
